<?xml version="1.0" encoding="UTF-8"?>
<svg width="150px" height="205px" viewBox="0 0 150 205" version="1.1" xmlns="http://www.w3.org/2000/svg" xmlns:xlink="http://www.w3.org/1999/xlink">
    <!-- Generator: Sketch 41.2 (35397) - http://www.bohemiancoding.com/sketch -->
    <title>logo</title>
    <desc>Created with Sketch.</desc>
    <defs>
        <polygon id="path-1" points="0.00029296875 50.9765625 4.53867188 50.9765625 4.53867188 0.262360019 0.00029296875 0.262360019"></polygon>
    </defs>
    <g id="Start" stroke="none" stroke-width="1" fill="none" fill-rule="evenodd">
        <g id="Desktop-HD" transform="translate(-645.000000, -20.000000)">
            <g id="logo" transform="translate(645.000000, 20.000000)">
                <circle id="Oval" fill="#383636" cx="75" cy="80" r="75"></circle>
                <g id="Group" stroke-width="1" transform="translate(0.000000, 160.000000)" fill="#FFF2BC">
                    <polygon id="Fill-13" points="20.3805768 8.30917025 14.7970387 8.30917025 14.7970387 31.0739891 6.56735297 31.0739891 6.56735297 8.30917025 0.646805526 8.30917025 1.1287428 0.995844838 20.8618207 0.995844838"></polygon>
                    <path d="M32.1479596,14.3641571 C31.2014209,14.3641571 30.5676214,14.7919308 30.246561,15.6474782 C29.9255006,16.5030256 29.7653172,17.8358931 29.7653172,19.6432894 C29.7653172,21.4520813 29.9171794,22.7598267 30.2229842,23.5672235 C30.5267087,24.3746202 31.1688295,24.7779696 32.1479596,24.7779696 C33.1257028,24.7779696 34.4016231,24.6007192 35.9743335,24.2448226 L36.8411272,30.4444011 C34.626296,31.1868991 32.6534736,31.5588458 30.9205798,31.5588458 C27.8722398,31.5588458 25.5700358,30.5253501 24.0139678,28.4583587 C22.4572064,26.3920652 21.6791724,23.5023247 21.6791724,19.7884394 C21.6791724,16.0759498 22.4814766,13.0647857 24.0860851,10.7556451 C25.6900001,8.44720229 28.0157808,7.29228306 31.0648142,7.29228306 C33.342748,7.29228306 35.3973957,7.67958226 37.2252902,8.45487849 L36.3591899,15.5742054 C34.4980106,14.7682044 33.0938048,14.3641571 32.1479596,14.3641571" id="Fill-14"></path>
                    <path d="M46.8990542,9.5685556 C48.6631526,8.05145927 50.5728724,7.29221328 52.6268267,7.29221328 C54.6793941,7.29221328 56.1314469,7.78488577 56.9822915,8.76953292 C57.8324427,9.75487791 58.2575184,11.2321976 58.2575184,13.2014919 L58.2575184,31.0737798 L50.0756796,31.0737798 L50.0756796,15.9621326 C50.0756796,15.1554338 49.7220278,14.7513865 49.0168045,14.7513865 C48.1181128,14.7513865 47.3636556,14.9774855 46.7548197,15.4289856 L46.7548197,31.0737798 L38.668675,31.0737798 L38.668675,0.0270385707 L46.7062793,0.0270385707 L46.7062793,9.5685556 L46.8990542,9.5685556 Z" id="Fill-16"></path>
                    <path d="M66.8725459,31.5585667 C63.0544932,31.5585667 61.1447734,29.4273744 61.1447734,25.1649897 L61.1447734,7.87399948 L69.327999,7.87399948 L69.327999,23.1789473 C69.327999,23.986344 69.680264,24.3903913 70.3861807,24.3903913 C71.284179,24.3903913 72.0386362,24.1642923 72.6488589,23.7120943 L72.6488589,7.87399948 L80.7343102,7.87399948 L80.7343102,30.977269 L73.0815623,30.977269 L73.0815623,29.2822244 L72.8894808,29.2822244 C71.1239955,30.8000186 69.1178882,31.5585667 66.8725459,31.5585667" id="Fill-18"></path>
                    <path d="M91.6113919,18.0448254 L91.6113919,31.0741287 L83.622328,31.0741287 L83.622328,7.87385991 L90.6489042,7.87385991 L91.1308415,9.27790674 L91.3229229,9.27790674 C92.0607377,8.43840955 92.8068737,7.89758635 93.5613309,7.65543712 C94.3144012,7.41328789 95.5417811,7.29256219 97.2427769,7.29256219 L96.9057676,15.0420354 L94.6923233,15.0420354 C93.4413666,15.0420354 92.6140988,15.2360339 92.2132934,15.6233331 C91.8117946,16.0106323 91.6113919,16.818029 91.6113919,18.0448254" id="Fill-20"></path>
                    <path d="M106.675988,18.0448254 L106.675988,31.0741287 L98.6869245,31.0741287 L98.6869245,7.87385991 L105.712807,7.87385991 L106.195438,9.27790674 L106.387519,9.27790674 C107.124641,8.43840955 107.870777,7.89758635 108.625234,7.65543712 C109.378998,7.41328789 110.606378,7.29256219 112.307373,7.29256219 L111.970364,15.0420354 L109.756226,15.0420354 C108.50527,15.0420354 107.678002,15.2360339 107.277196,15.6233331 C106.876391,16.0106323 106.675988,16.818029 106.675988,18.0448254" id="Fill-22"></path>
                    <path d="M121.836764,25.8913676 C123.023232,25.8913676 123.617505,25.2619191 123.617505,24.0023244 L123.617505,21.6296807 C122.429651,21.7908809 121.587821,22.0407063 121.090628,22.3798548 C120.592742,22.7190033 120.344492,23.2926248 120.344492,24.1000215 C120.344492,25.2947175 120.840992,25.8913676 121.836764,25.8913676 M131.126019,13.9276604 L130.885397,23.9541737 C130.885397,24.5682698 131.037259,24.9792954 131.34237,25.1893442 C131.646788,25.3993929 132.167558,25.5040684 132.90676,25.5040684 L132.184894,31.3651963 C130.323021,31.4929003 129.296737,31.5584969 129.103962,31.5584969 C126.729641,31.5584969 125.22142,30.73505 124.579993,29.0881561 L124.339371,29.0881561 C123.151517,30.73505 121.322929,31.5584969 118.85222,31.5584969 C116.959143,31.5584969 115.507784,30.9450987 114.496756,29.7176045 C113.485727,28.491506 112.980907,26.8118138 112.980907,24.6806214 C112.980907,22.0009297 113.806788,20.1446849 115.459243,19.1104913 C117.111699,18.0776935 119.718321,17.3993965 123.280496,17.0762982 L123.280496,15.9137028 C123.280496,15.0100047 122.83115,14.5578067 121.933152,14.5578067 C120.393033,14.5578067 117.98612,15.0260549 114.713107,15.9618535 L113.509998,8.89067732 C117.616519,7.82508115 121.03446,7.29263198 123.761046,7.29263198 C126.488326,7.29263198 128.398046,7.82508115 129.489512,8.89067732 C130.579592,9.9562735 131.126019,11.6352679 131.126019,13.9276604" id="Fill-24"></path>
                    <path d="M133.482935,14.7273809 C133.482935,12.3868377 134.196479,10.5612977 135.624955,9.25355225 C137.052044,7.94580684 139.017932,7.29263198 141.521232,7.29263198 C144.023839,7.29263198 146.55765,7.61573023 149.12544,8.26053106 L148.307187,14.9939544 C145.034174,14.2507587 142.835985,13.8795097 141.713314,13.8795097 C141.039295,13.8795097 140.702286,14.1544572 140.702286,14.7029567 C140.702286,15.0588532 141.071193,15.3812536 141.809701,15.6722514 C144.376104,16.60805 146.310094,17.674344 147.609591,18.8690399 C148.909088,20.063038 149.558837,21.8557797 149.558837,24.2451715 C149.558837,26.6345633 148.948614,28.4510315 147.729555,29.6938781 C146.509803,30.9374225 144.640996,31.5584969 142.12244,31.5584969 C139.603191,31.5584969 137.092957,31.2353987 134.59035,30.5899 L135.119441,24.0504752 C138.327271,24.9227707 140.405496,25.3582206 141.352728,25.3582206 C142.298573,25.3582206 142.772189,25.1335172 142.772189,24.6806214 C142.772189,24.2284234 142.419231,23.8739226 141.713314,23.6150253 C138.857055,22.5180264 136.771897,21.347057 135.45645,20.1035125 C134.140311,18.8606659 133.482935,17.068622 133.482935,14.7273809" id="Fill-26"></path>
                    <path d="M116.535108,43.2923368 C116.535108,42.7773335 116.669634,42.3935235 116.938687,42.1430002 C117.207739,41.8910813 117.636282,41.7654707 118.225008,41.7654707 C118.813735,41.7654707 119.242278,41.8910813 119.51133,42.1430002 C119.780383,42.3935235 119.914909,42.7898946 119.914909,43.3314156 C119.914909,44.3230411 119.35184,44.8192028 118.225008,44.8192028 C117.098177,44.8192028 116.535108,44.3097822 116.535108,43.2923368" id="Fill-28"></path>
                    <path d="M125.377027,37.9400014 C124.999105,37.9400014 124.746695,38.1109713 124.618409,38.4515155 C124.490817,38.7934553 124.426328,39.3245088 124.426328,40.0460716 C124.426328,40.7676345 124.48735,41.2896161 124.609395,41.6113187 C124.730052,41.9337191 124.986623,42.0942215 125.377027,42.0942215 C125.766737,42.0942215 126.276412,42.02374 126.903277,41.8813814 L127.249301,44.3545136 C126.365865,44.651094 125.578817,44.7997332 124.887462,44.7997332 C123.671177,44.7997332 122.753069,44.3873119 122.131752,43.5631671 C121.511127,42.7383245 121.201162,41.5854987 121.201162,40.1046899 C121.201162,38.6231832 121.520142,37.421509 122.160876,36.5003649 C122.800916,35.5792209 123.728732,35.1186489 124.945017,35.1186489 C125.853417,35.1186489 126.673057,35.2735685 127.40255,35.5827101 L127.05722,38.4229042 C126.314551,38.1005038 125.754256,37.9400014 125.377027,37.9400014" id="Fill-30"></path>
                    <path d="M132.442782,38.1137627 C132.358877,37.856261 132.150846,37.7271613 131.818691,37.7271613 C131.485149,37.7271613 131.273651,37.856261 131.184891,38.1137627 C131.095438,38.3712643 131.050365,38.9127853 131.050365,39.7369301 L131.050365,40.2002935 C131.050365,41.1158548 131.095438,41.7076201 131.184891,41.9783806 C131.273651,42.2491411 131.482375,42.3838236 131.808983,42.3838236 C132.135591,42.3838236 132.342928,42.2491411 132.432381,41.9783806 C132.521834,41.7076201 132.567601,41.153538 132.567601,40.3161343 L132.567601,39.7564695 C132.567601,38.9190659 132.525301,38.3712643 132.442782,38.1137627 M127.825199,39.9400005 C127.825199,38.2456538 128.14834,37.0195552 128.793928,36.2589135 C129.440902,35.4989697 130.451931,35.1186489 131.827705,35.1186489 C133.204174,35.1186489 134.205494,35.4926892 134.833052,36.2393741 C135.460611,36.9867569 135.774044,38.2142511 135.774044,39.9204611 C135.774044,41.6273689 135.466159,42.8674242 134.852469,43.6399291 C134.238085,44.412434 133.233298,44.7997332 131.838107,44.7997332 C130.442222,44.7997332 129.42426,44.412434 128.784913,43.6399291 C128.144873,42.8674242 127.825199,41.6336494 127.825199,39.9400005" id="Fill-32"></path>
                    <path d="M144.5677,36.0270923 C145.271537,35.4220681 146.046103,35.1185093 146.891401,35.1185093 C147.735311,35.1185093 148.328198,35.3152992 148.667287,35.7081811 C149.005684,36.1010629 149.176269,36.6907347 149.176269,37.4758006 L149.176269,44.6062929 L145.911577,44.6062929 L145.911577,38.5776843 C145.911577,38.2552839 145.77081,38.0947815 145.489275,38.0947815 C145.130769,38.0947815 144.829818,38.1848024 144.586423,38.365542 L144.586423,44.6062929 L141.322425,44.6062929 L141.322425,38.5776843 C141.322425,38.2552839 141.181657,38.0947815 140.900123,38.0947815 C140.541617,38.0947815 140.24136,38.1848024 139.997964,38.365542 L139.997964,44.6062929 L136.772105,44.6062929 L136.772105,35.350191 L139.710188,35.350191 L139.901576,36.0270923 L139.978548,36.0270923 C140.682384,35.4220681 141.517973,35.1185093 142.484622,35.1185093 C143.45127,35.1185093 144.080909,35.4799886 144.376312,36.2008535 L144.5677,36.0270923 Z" id="Fill-34"></path>
                </g>
                <g id="Page-1" stroke-width="1">
                    <path d="M150,75 C150,116.421387 116.421387,150 75,150 C33.5783203,150 0,116.421387 0,75 C0,33.5786133 33.5783203,0 75,0 C116.421387,0 150,33.5786133 150,75" id="Fill-1" fill="#FF690B"></path>
                    <path id="Fill-3" fill="#B4B8B8"></path>
                    <path id="Fill-5" fill="#B4B8B8"></path>
                    <path id="Fill-7" fill="#B4B8B8"></path>
                    <path id="Fill-9" fill="#B4B8B8"></path>
                    <path id="Fill-11" fill="#B4B8B8"></path>
                    <path id="Fill-13" fill="#B4B8B8"></path>
                    <path id="Fill-15" fill="#B4B8B8"></path>
                    <path id="Fill-17" fill="#B4B8B8"></path>
                    <path id="Fill-19" fill="#B4B8B8"></path>
                    <path id="Fill-21" fill="#B4B8B8"></path>
                    <path d="M78.2229492,102.282715 C78.2229492,100.473047 76.9916016,99.4851562 75.646875,99.3128906 C76.021582,99.3612305 76.2776367,99.4731445 76.6104492,99.6483398 C75.75,100.102148 75.000293,100.978125 75.000293,102.282715 L75.000293,149.99707 C76.172168,149.994141 77.0510742,149.968945 78.2229492,149.926758 L78.2229492,103.971387 L78.2229492,102.282715 Z" id="Fill-23" fill="#B4B8B8"></path>
                    <path id="Fill-25" fill="#B4B8B8"></path>
                    <path id="Fill-27" fill="#969999"></path>
                    <path id="Fill-29" fill="#969999"></path>
                    <path id="Fill-31" fill="#969999"></path>
                    <path id="Fill-33" fill="#969999"></path>
                    <path id="Fill-35" fill="#969999"></path>
                    <path id="Fill-37" fill="#969999"></path>
                    <path id="Fill-39" fill="#969999"></path>
                    <path id="Fill-41" fill="#969999"></path>
                    <path id="Fill-43" fill="#969999"></path>
                    <path id="Fill-45" fill="#969999"></path>
                    <path id="Fill-47" fill="#969999"></path>
                    <g id="Group-51" transform="translate(72.070312, 99.023438)">
                        <mask id="mask-2" fill="white">
                            <use xlink:href="#path-1"></use>
                        </mask>
                        <g id="Clip-50"></g>
                        <path d="M2.92998047,50.9736914 L2.92998047,3.25933594 C2.92998047,1.95474609 3.67822266,1.07847656 4.53867188,0.624960937 C4.20585938,0.449765625 3.89443359,0.337851562 3.51972656,0.289511719 C3.51796875,0.28921875 3.54404297,0.288925781 3.54169922,0.288925781 C3.17490234,0.242050781 2.81337891,0.257578125 2.4515625,0.332578125 C2.43662109,0.335214844 2.42871094,0.338144531 2.41376953,0.341660156 C2.29892578,0.367441406 2.18847656,0.397910156 2.07714844,0.435996094 C2.07626953,0.436289062 2.07685547,0.436582031 2.07568359,0.436582031 C1.96230469,0.475839844 1.85214844,0.521835937 1.74375,0.573984375 C1.72792969,0.581308594 1.71386719,0.590390625 1.69775391,0.598007812 C1.61015625,0.641953125 1.52636719,0.69 1.44404297,0.742441406 C1.42060547,0.757675781 1.39658203,0.772617187 1.37285156,0.7884375 C1.28759766,0.846738281 1.2046875,0.908847656 1.12558594,0.976523437 C1.11621094,0.984140625 1.10625,0.991171875 1.09716797,0.999082031 C1.01132813,1.07466797 0.930175781,1.15699219 0.853417969,1.24458984 C0.833496094,1.2665625 0.815917969,1.29029297 0.796289063,1.31373047 C0.740625,1.38199219 0.687011719,1.4540625 0.637207031,1.5290625 C0.617578125,1.55806641 0.598242188,1.58736328 0.579492188,1.61783203 C0.522949219,1.71041016 0.470507813,1.80650391 0.42421875,1.90816406 C0.41953125,1.91958984 0.4125,1.92925781 0.4078125,1.94039062 C0.35859375,2.05289062 0.316699219,2.17242187 0.280664063,2.29634766 C0.270410156,2.33179687 0.262207031,2.36929687 0.252832031,2.405625 C0.229101563,2.50113281 0.20859375,2.59986328 0.192773438,2.70152344 C0.186621094,2.74195312 0.106347656,2.78208984 0.101660156,2.82339844 C0.0849609375,2.9634375 0.00029296875,3.10757812 0.00029296875,3.25933594 L0.00029296875,50.9197852 C0.879199219,50.9537695 1.81582031,50.9766211 2.74804688,50.9766211 C2.82070313,50.9766211 2.92998047,50.9742773 2.92998047,50.9736914" id="Fill-49" fill="#969999" mask="url(#mask-2)"></path>
                    </g>
                    <path d="M62.6109082,104.726602 C61.984834,105.057656 61.4612988,105.628359 61.187959,106.483242 C57.0486035,119.415762 52.9086621,132.347988 48.7690137,145.280508 C49.7680371,145.653457 50.7776074,146.004727 51.7962598,146.335488 C55.8770215,133.589297 59.9574902,120.842227 64.037373,108.095742 C64.5500684,106.494668 63.766084,105.290566 62.6109082,104.726602" id="Fill-52" fill="#B4B8B8"></path>
                    <path id="Fill-54" fill="#B4B8B8"></path>
                    <path id="Fill-56" fill="#B4B8B8"></path>
                    <path id="Fill-58" fill="#B4B8B8"></path>
                    <path id="Fill-60" fill="#B4B8B8"></path>
                    <path id="Fill-62" fill="#B4B8B8"></path>
                    <path id="Fill-64" fill="#B4B8B8"></path>
                    <path id="Fill-66" fill="#B4B8B8"></path>
                    <path id="Fill-68" fill="#B4B8B8"></path>
                    <path id="Fill-70" fill="#B4B8B8"></path>
                    <path id="Fill-72" fill="#B4B8B8"></path>
                    <path id="Fill-74" fill="#B4B8B8"></path>
                    <path id="Fill-76" fill="#B4B8B8"></path>
                    <path id="Fill-78" fill="#969999"></path>
                    <path id="Fill-80" fill="#969999"></path>
                    <path id="Fill-82" fill="#969999"></path>
                    <path id="Fill-84" fill="#969999"></path>
                    <path id="Fill-86" fill="#969999"></path>
                    <path id="Fill-88" fill="#969999"></path>
                    <path id="Fill-90" fill="#969999"></path>
                    <path id="Fill-92" fill="#969999"></path>
                    <path id="Fill-94" fill="#969999"></path>
                    <path id="Fill-96" fill="#969999"></path>
                    <path id="Fill-98" fill="#969999"></path>
                    <path id="Fill-100" fill="#969999"></path>
                    <path d="M61.1878418,106.56167 C61.4614746,105.706201 61.9850098,105.468896 62.610791,104.882959 L62.6096191,104.882959 C62.227002,104.882959 61.8039551,104.501807 61.373584,104.465186 C61.364502,104.4646 61.3560059,104.424756 61.3472168,104.42417 C61.2525879,104.416553 61.157373,104.393701 61.0624512,104.394287 C61.0442871,104.394287 61.026416,104.384912 61.008252,104.384912 C60.9224121,104.387256 60.8365723,104.387256 60.7507324,104.395166 C60.7284668,104.39751 60.7064941,104.397217 60.6839355,104.400146 C60.6010254,104.409814 60.5184082,104.421533 60.436084,104.438232 C60.4144043,104.442334 60.3924316,104.444971 60.370752,104.449658 C60.2837402,104.468994 60.1979004,104.492139 60.1120605,104.518213 C60.0977051,104.523193 60.0824707,104.526416 60.0681152,104.530811 C59.8686035,104.596143 59.6758301,104.682568 59.4927246,104.790088 C59.4695801,104.803857 59.4479004,104.819971 59.4253418,104.834326 C59.3597168,104.875342 59.2955566,104.918115 59.2331543,104.964697 C59.2035645,104.987256 59.1748535,105.012158 59.1455566,105.036182 C59.0928223,105.079248 59.0403809,105.124072 58.9905762,105.171826 C58.9598145,105.20083 58.9302246,105.231299 58.9006348,105.261768 C58.8549316,105.309814 58.8101074,105.360498 58.7661621,105.413232 C58.7377441,105.447217 58.7096191,105.481787 58.682666,105.517822 C58.6407715,105.573486 58.6009277,105.632373 58.5619629,105.692432 C58.5373535,105.729932 58.5133301,105.766553 58.4898926,105.805811 C58.4497559,105.873779 58.4134277,105.946729 58.3773926,106.020264 C58.3601074,106.056006 58.3407715,106.090283 58.3246582,106.12749 C58.2739746,106.240576 58.2276855,106.358643 58.1878418,106.483154 C54.1606934,119.06499 50.1335449,131.646533 46.1058105,144.228076 C46.9847168,144.595459 47.873291,144.984814 48.7688965,145.319385 C52.9085449,132.387158 57.0484863,119.494189 61.1878418,106.56167" id="Fill-102" fill="#969999"></path>
                    <path id="Fill-104" fill="#969999"></path>
                    <path id="Fill-106" fill="#969999"></path>
                    <path d="M89.5503223,106.483271 C89.2766895,105.628389 88.7531543,105.057979 88.1270801,104.726631 C86.9719043,105.290596 86.1879199,106.494697 86.7006152,108.095771 C90.7576465,120.770186 94.8149707,133.444307 98.871416,146.118721 C99.8883105,145.777705 100.893193,145.413252 101.889287,145.030342 C97.7757129,132.181025 93.6630176,119.332002 89.5503223,106.483271" id="Fill-108" fill="#969999"></path>
                    <path id="Fill-110" fill="#969999"></path>
                    <path id="Fill-112" fill="#969999"></path>
                    <path id="Fill-114" fill="#969999"></path>
                    <path id="Fill-116" fill="#969999"></path>
                    <path id="Fill-118" fill="#969999"></path>
                    <path id="Fill-120" fill="#969999"></path>
                    <path id="Fill-122" fill="#969999"></path>
                    <path id="Fill-124" fill="#969999"></path>
                    <path id="Fill-126" fill="#969999"></path>
                    <path id="Fill-128" fill="#969999"></path>
                    <path id="Fill-130" fill="#B4B8B8"></path>
                    <path id="Fill-132" fill="#B4B8B8"></path>
                    <path id="Fill-134" fill="#B4B8B8"></path>
                    <path id="Fill-136" fill="#B4B8B8"></path>
                    <path id="Fill-138" fill="#B4B8B8"></path>
                    <path id="Fill-140" fill="#B4B8B8"></path>
                    <path id="Fill-142" fill="#B4B8B8"></path>
                    <path id="Fill-144" fill="#B4B8B8"></path>
                    <path id="Fill-146" fill="#B4B8B8"></path>
                    <path id="Fill-148" fill="#B4B8B8"></path>
                    <path id="Fill-150" fill="#B4B8B8"></path>
                    <path id="Fill-152" fill="#B4B8B8"></path>
                    <path d="M92.413623,106.127344 C92.3975098,106.090137 92.3784668,106.056152 92.3608887,106.02041 C92.3245605,105.946875 92.2885254,105.873926 92.2483887,105.805664 C92.2249512,105.766699 92.2006348,105.730078 92.1760254,105.692578 C92.1373535,105.63252 92.0978027,105.57334 92.0556152,105.517969 C92.0286621,105.481934 92.0005371,105.447656 91.9721191,105.413086 C91.9284668,105.360938 91.8830566,105.309961 91.8373535,105.261621 C91.8083496,105.231152 91.7784668,105.200977 91.7477051,105.17168 C91.6979004,105.123926 91.645459,105.079102 91.5921387,105.036035 C91.5631348,105.012012 91.5347168,104.987109 91.504834,104.964551 C91.4424316,104.917676 91.3773926,104.874902 91.3120605,104.833594 C91.289502,104.819531 91.2681152,104.803711 91.2458496,104.79082 C91.0630371,104.682422 90.8696777,104.595703 90.670459,104.530957 C90.6558105,104.525977 90.6408691,104.522754 90.6273926,104.518652 C90.5412598,104.491699 90.454541,104.468262 90.3672363,104.448926 C90.3455566,104.444531 90.323584,104.441016 90.3021973,104.436621 C90.220459,104.420508 90.1372559,104.407324 90.0537598,104.397656 C90.0314941,104.394727 90.0104004,104.392969 89.9878418,104.390625 C89.9022949,104.382129 89.8158691,104.377148 89.7300293,104.375684 C89.7118652,104.375391 89.6939941,104.374805 89.6755371,104.374805 C89.5812012,104.374219 89.4862793,104.377441 89.3916504,104.385059 C89.3825684,104.385645 89.3734863,104.38623 89.3649902,104.386816 C88.9352051,104.42373 88.5124512,104.539453 88.129834,104.725488 C88.129541,104.725781 88.1283691,104.726367 88.1271973,104.72666 C88.7532715,105.058008 89.2768066,105.628418 89.5504395,106.483301 C93.6631348,119.332031 97.7758301,132.181055 101.889404,145.030371 C102.782666,144.687012 103.667725,144.328711 104.544287,143.952539 C100.546436,131.462988 96.548291,118.973145 92.5504395,106.483301 C92.5103027,106.358496 92.4645996,106.240723 92.413623,106.127344" id="Fill-154" fill="#B4B8B8"></path>
                    <path d="M62.6109082,104.726602 L62.6109082,104.726602 C62.6097363,104.726016 62.6088574,104.726016 62.6082715,104.725137 C62.2262402,104.538809 61.8034863,104.423379 61.3734082,104.386758 C61.3646191,104.385586 61.356123,104.385586 61.347334,104.384707 C61.2524121,104.377676 61.1574902,104.37416 61.0625684,104.374746 C61.0441113,104.374746 61.0265332,104.375039 61.0080762,104.375625 C60.9222363,104.377676 60.8363965,104.38207 60.7505566,104.390859 C60.728291,104.39291 60.7066113,104.394961 60.6840527,104.397598 C60.6011426,104.407266 60.5182324,104.420449 60.4364941,104.436563 C60.4145215,104.440957 60.3925488,104.444766 60.3708691,104.44916 C60.2838574,104.468203 60.1980176,104.491641 60.1127637,104.518008 C60.0981152,104.522402 60.0822949,104.525625 60.0679395,104.530898 C59.8687207,104.59623 59.6759473,104.68207 59.4928418,104.790762 C59.4694043,104.804238 59.4477246,104.820352 59.4242871,104.834414 C59.359541,104.87543 59.2959668,104.91791 59.2338574,104.964492 C59.2033887,104.987344 59.1743848,105.012832 59.1450879,105.036855 C59.0923535,105.079629 59.040791,105.123867 58.9912793,105.171328 C58.9602246,105.200625 58.9303418,105.231387 58.900166,105.262734 C58.8544629,105.310488 58.8099316,105.360293 58.7671582,105.412734 C58.7375684,105.447305 58.7097363,105.481875 58.6821973,105.518496 C58.6405957,105.573867 58.600752,105.632461 58.562666,105.691934 C58.5380566,105.729727 58.5134473,105.766641 58.4900098,105.806191 C58.449873,105.873867 58.4135449,105.94623 58.3778027,106.019473 C58.3599316,106.055801 58.3411816,106.089785 58.3244824,106.127285 C58.2737988,106.240078 58.2278027,106.358438 58.187666,106.483242 C56.7503613,110.975039 55.3124707,115.46625 53.8745801,119.957461 C55.6678418,120.701016 57.5759473,121.354922 59.6021191,121.907168 C61.0769238,117.306094 62.5514355,112.704141 64.0238965,108.103945 C64.5365918,106.502578 63.766084,105.290566 62.6109082,104.726602" id="Fill-156" fill="#5D5D5D"></path>
                    <path d="M92.5503809,106.483271 C92.5102441,106.358467 92.464541,106.240107 92.4135645,106.127314 C92.3971582,106.089814 92.3784082,106.05583 92.3605371,106.019502 C92.324502,105.94626 92.2884668,105.873896 92.248623,105.805928 C92.2251855,105.76667 92.2002832,105.729756 92.1756738,105.691963 C92.1372949,105.63249 92.0977441,105.573604 92.0561426,105.518525 C92.0288965,105.481904 92.0004785,105.446748 91.9711816,105.412764 C91.9284082,105.360322 91.883877,105.310518 91.8378809,105.262764 C91.808291,105.231416 91.7778223,105.200654 91.7470605,105.171064 C91.6972559,105.123896 91.6459863,105.079658 91.592959,105.036885 C91.5639551,105.012275 91.5346582,104.98708 91.5044824,104.964521 C91.442959,104.917939 91.3785059,104.875459 91.3137598,104.834443 C91.2903223,104.820381 91.2686426,104.803975 91.245791,104.790791 C91.0626855,104.6821 90.8699121,104.59626 90.6704004,104.530928 C90.655752,104.525654 90.6405176,104.523018 90.6255762,104.518037 C90.5406152,104.49167 90.4544824,104.468232 90.3677637,104.449189 C90.345791,104.444795 90.3235254,104.440986 90.3021387,104.437178 C90.2198145,104.420479 90.1374902,104.407295 90.0539941,104.397627 C90.0314355,104.39499 90.0103418,104.392354 89.9877832,104.390596 C89.9016504,104.3821 89.8158105,104.377705 89.7299707,104.375654 C89.7118066,104.375068 89.6939355,104.374775 89.6754785,104.374775 C89.5805566,104.374189 89.4856348,104.377705 89.3915918,104.384736 C89.3825098,104.385615 89.3734277,104.385615 89.3649316,104.386787 C88.9339746,104.423408 88.5123926,104.539424 88.1294824,104.725459 C88.1283105,104.726045 88.1277246,104.726045 88.1271387,104.726631 C86.9719629,105.290596 86.1879785,106.494697 86.7006738,108.095771 C88.170791,112.688643 89.6412012,117.280635 91.1107324,121.873506 C93.1380762,121.310127 95.0467676,120.642451 96.8397363,119.883662 C95.4097559,115.417061 93.9800684,110.950166 92.5503809,106.483271" id="Fill-158" fill="#5D5D5D"></path>
                    <path d="M78.2229492,102.282715 C78.2229492,100.473047 76.9921875,99.4851563 75.6474609,99.3128906 C75.6457031,99.3123047 75.6424805,99.3123047 75.6404297,99.3117188 C75.2736328,99.2654297 74.8977539,99.2803711 74.5362305,99.355957 C74.5212891,99.3588867 74.5066406,99.2900391 74.4919922,99.2935547 C74.3768555,99.3193359 74.2620117,99.3164063 74.1506836,99.3164063 L74.1489258,99.3164063 C74.034668,99.3164063 73.9233398,99.4731445 73.8149414,99.5258789 C73.7991211,99.5326172 73.7847656,99.5771484 73.7695312,99.5850586 C73.6819336,99.6287109 73.5966797,99.6958008 73.5143555,99.7485352 C73.490332,99.7631836 73.4674805,99.7866211 73.444043,99.8021484 C73.3579102,99.8610352 73.2738281,99.928418 73.1950195,99.9966797 C73.1859375,100.004004 73.1759766,100.012207 73.1680664,100.019531 C73.0816406,100.095703 73.0004883,100.179199 72.9231445,100.266797 C72.9038086,100.289062 72.8862305,100.313672 72.8671875,100.336523 C72.8109375,100.405078 72.7573242,100.476563 72.7075195,100.552441 C72.6878906,100.581738 72.6685547,100.610742 72.6498047,100.640918 C72.5932617,100.733789 72.5405273,100.830469 72.4933594,100.932715 C72.4892578,100.943262 72.4828125,100.953223 72.4787109,100.963184 C72.4289063,101.07627 72.3870117,101.195801 72.3509766,101.319727 C72.3407227,101.355469 72.3325195,101.39209 72.3231445,101.428125 C72.2994141,101.524512 72.2789063,101.622949 72.2630859,101.725195 C72.2569336,101.765332 72.1766602,101.805469 72.1719727,101.847363 C72.1552734,101.987402 72.0706055,102.130664 72.0706055,102.282715 L72.0706055,123.81123 C73.2424805,123.858105 74.2227539,123.88916 75.2985352,123.88916 C76.2688477,123.88916 77.0510742,123.862207 78.2229492,123.823535 L78.2229492,103.971387 L78.2229492,102.282715 Z" id="Fill-160" fill="#5D5D5D"></path>
                    <path d="M24.672334,64.7378027 C27.7241895,64.7378027 30.6216504,64.0815527 33.2387402,62.9105566 C35.0141309,64.2344824 37.2072949,65.0278418 39.5917676,65.0278418 C42.1904004,65.0278418 44.5698926,64.0947363 46.4185254,62.5475684 C47.5370801,63.2187598 48.841377,63.6113379 50.2405957,63.6113379 C54.3588574,63.6113379 57.6975293,60.272959 57.6975293,56.1544043 C57.6975293,53.1221777 55.8837598,50.5182715 53.284541,49.3525488 C56.3715527,46.3050879 58.2861035,42.0737402 58.2861035,37.3935645 C58.2861035,34.5810645 57.5911816,31.932041 56.3703809,29.6023535 C63.3691113,25.9897559 68.1579785,18.694541 68.1579785,10.275498 C68.1579785,6.78038086 67.328291,3.4809668 65.8628613,0.555087891 C37.4337598,4.00831055 13.9127637,23.3647559 4.4624707,49.463291 C6.95827148,58.2778418 15.0582715,64.7378027 24.672334,64.7378027" id="Fill-162" fill="#CCCFCF"></path>
                    <path d="M81.8307129,0.313007812 C81.6153809,1.84552734 81.4964355,3.4096875 81.4964355,5.00197266 C81.4964355,20.6157422 92.188623,33.7313672 106.650146,37.4286328 C106.944873,38.0602734 107.270068,38.673457 107.629541,39.264082 C105.1229,41.33625 103.525928,44.4692578 103.525928,47.9755078 C103.525928,49.4136914 103.797217,50.7877148 104.287061,52.0527539 C100.174365,52.2604687 96.9007324,55.651875 96.9007324,59.8161328 C96.9007324,64.1145703 100.385303,67.5991406 104.684033,67.5991406 C108.983057,67.5991406 112.467041,64.1145703 112.467041,59.8161328 C112.467041,59.5466016 112.453564,59.279707 112.426318,59.017207 C113.199463,59.1841992 114.001611,59.2744336 114.823975,59.2744336 C120.937939,59.2744336 125.904639,54.4149609 126.103857,48.349043 C132.359912,47.6599805 137.696045,43.9501172 140.648877,38.7159375 C128.904932,17.5123242 107.189502,2.60226563 81.8307129,0.313007812" id="Fill-164" fill="#CCCFCF"></path>
                    <path d="M81.8307129,0.313007812 C81.6153809,1.84552734 81.4964355,3.4096875 81.4964355,5.00197266 C81.4964355,20.6157422 92.188623,33.7313672 106.650146,37.4286328 C106.944873,38.0602734 107.270068,38.673457 107.629541,39.264082 C105.1229,41.33625 103.525928,44.4692578 103.525928,47.9755078 C103.525928,49.4136914 103.797217,50.7877148 104.287061,52.0527539 C100.174365,52.2604687 96.9007324,55.651875 96.9007324,59.8161328 C96.9007324,64.1145703 100.385303,67.5991406 104.684033,67.5991406 C108.983057,67.5991406 112.467041,64.1145703 112.467041,59.8161328 C112.467041,59.5466016 112.453564,59.279707 112.426318,59.017207 C113.199463,59.1841992 114.001611,59.2744336 114.823975,59.2744336 C120.937939,59.2744336 125.904639,54.4149609 126.103857,48.349043 C132.359912,47.6599805 137.696045,43.9501172 140.648877,38.7159375 C128.904932,17.5123242 107.189502,2.60226563 81.8307129,0.313007812" id="Fill-166" fill="#CCCFCF"></path>
                    <path d="M127.91376,30.6899121 C128.236611,30.1071973 128.420596,29.4377637 128.420596,28.7246777 C128.420596,26.5156934 126.658682,24.7221387 124.464639,24.663252 C123.705557,20.6747754 120.205459,17.6577832 115.996377,17.6577832 C111.232705,17.6577832 107.37167,21.5188184 107.37167,26.2827832 C107.37167,29.2408887 108.861709,31.8486035 111.130459,33.4025098 C109.761123,34.7677441 108.913271,36.6556348 108.913271,38.7421582 C108.913271,40.7343457 109.691396,42.541084 110.953506,43.8893262 C110.024795,45.0017285 109.465225,46.432002 109.465225,47.9941113 C109.465225,48.4274121 109.510049,48.8495801 109.591201,49.2582715 C107.531338,49.8966504 106.034561,51.8164746 106.034561,54.0863965 C106.034561,54.5932324 106.111318,55.0816113 106.250186,55.5433301 C105.322354,56.0926465 104.697744,57.100752 104.697744,58.2573926 C104.697744,59.9996777 106.110439,61.4114941 107.852432,61.4114941 C109.291787,61.4114941 110.503799,60.446748 110.882021,59.1292676 C110.951455,59.1319043 111.018838,59.1395215 111.088271,59.1395215 C113.774795,59.1395215 115.965322,57.0412793 116.125869,54.3948926 C119.480068,54.2671582 122.168936,51.569209 122.281436,48.2114941 C124.007314,47.6170605 125.249502,45.9834668 125.249502,44.0557324 C125.249502,43.7993848 125.223135,43.5491895 125.18124,43.3048535 C125.84042,43.5298535 126.544424,43.6578809 127.279775,43.6578809 C130.869814,43.6578809 133.77958,40.7475293 133.77958,37.1577832 C133.77958,33.7819043 131.206143,31.0089551 127.91376,30.6899121" id="Fill-168" fill="#DBDEDE"></path>
                    <path d="M47.8016895,48.7758691 C50.4732715,47.6089746 52.3421191,44.9467676 52.3421191,41.8454004 C52.3421191,39.6909082 51.4368457,37.751748 49.9916309,36.374502 C50.6329395,35.1059473 51.0020801,33.6762598 51.0020801,32.1578027 C51.0020801,26.979873 46.8044238,22.7828027 41.6270801,22.7828027 C37.3960254,22.7828027 33.8226855,25.5865137 32.656377,29.436416 C31.6538379,29.0160059 30.5531543,28.7828027 29.3979785,28.7828027 C24.7418262,28.7828027 20.9672168,32.5574121 20.9672168,37.2132715 C20.9672168,38.0037012 21.0841113,38.7657129 21.2874316,39.4913965 C17.0487598,40.7954004 13.9673145,44.7411035 13.9673145,49.4075098 C13.9673145,55.1376855 18.612334,59.7827051 24.3425098,59.7827051 C26.1562793,59.7827051 27.8598926,59.315127 29.3431934,58.4965723 C30.949248,59.4903223 32.8353809,60.0730371 34.8627246,60.0730371 C36.1670215,60.0730371 37.4103809,59.8245996 38.5629199,59.3910059 C39.8595996,60.8121973 41.7202441,61.7089746 43.7953418,61.7089746 C47.7102832,61.7089746 50.8834277,58.5355371 50.8834277,54.6205957 C50.8834277,52.1933496 49.661748,50.0529199 47.8016895,48.7758691" id="Fill-170" fill="#DBDEDE"></path>
                    <path d="M57.535459,135.351562 C63.4838965,133.300781 69.4314551,131.073047 75.3795996,128.950195 C75.601084,129.029883 75.8237402,129.091992 76.0458105,129.171094 C76.8910254,129.473145 77.7377051,129.766406 78.5829199,130.067871 C81.2249121,131.010938 83.8666113,131.983301 86.5088965,132.926074 C88.8643652,133.766016 91.219541,134.765625 93.5747168,135.351562 L57.535459,135.351562 Z M75.292002,128.8875 C75.2102637,128.87959 75.1926855,128.858496 75.292002,128.8875 L75.292002,128.8875 Z M98.5619238,135.566602 C98.4916113,135.541406 98.4224707,135.544043 98.3518652,135.519141 C98.3600684,135.454688 98.3676855,135.351562 98.3747168,135.351562 L97.7999121,135.351562 C94.1606543,134.179688 90.5219824,132.789844 86.8821387,131.49082 C84.2413184,130.548047 81.5990332,129.625781 78.957627,128.682715 C77.9436621,128.321191 76.4829199,127.458105 75.3790137,127.458105 C74.2759863,127.458105 72.8149512,128.336426 71.8009863,128.698242 C69.159873,129.640723 66.5178809,130.620117 63.8767676,131.562305 C60.3684668,132.814453 56.860752,134.179688 53.3533301,135.351562 L52.7172949,135.351562 C51.7206152,135.351562 51.3898535,135.977637 51.7185645,136.42207 C51.7194434,136.851855 52.0545996,137.272559 52.5708105,137.088281 C52.8245215,136.997754 53.0779395,137.109375 53.3313574,136.816406 L97.9669043,136.816406 C98.0407324,136.816406 98.1142676,136.866797 98.1880957,136.893164 C98.1910254,136.869434 98.194248,136.816406 98.1977637,136.816406 L98.3747168,136.816406 C99.2023535,136.816406 99.2893652,135.825879 98.5619238,135.566602 L98.5619238,135.566602 Z" id="Fill-172" fill="#B4B8B8"></path>
                    <path d="M25.6321875,72.9194531 C25.6321875,72.9194531 29.3063086,116.389277 75.3689063,116.389277 C121.43209,116.389277 124.89791,72.0806836 124.89791,72.0806836 C124.89791,72.0806836 25.6321875,72.8136914 25.6321875,72.9194531" id="Fill-174" fill="#334D5C"></path>
                    <path d="M25.6321875,72.9194531 C25.6321875,72.9194531 29.3063086,116.389277 75.3689063,116.389277 C121.43209,116.389277 124.89791,72.0806836 124.89791,72.0806836 C124.89791,72.0806836 25.6321875,72.8136914 25.6321875,72.9194531" id="Fill-176" fill="#334D5C"></path>
                    <path d="M75.3682324,89.2753711 C51.1874707,89.2753711 25.487666,83.1057422 25.487666,71.6714648 C25.487666,66.5749805 30.9193066,61.8616992 40.7818066,58.4002734 C50.1849316,55.1002734 62.4685254,53.2826953 75.3682324,53.2826953 C88.2685254,53.2826953 100.552119,55.1002734 109.956123,58.4002734 C119.81833,61.8616992 125.249678,66.5749805 125.249678,71.6714648 C125.249678,83.1057422 99.5492871,89.2753711 75.3682324,89.2753711" id="Fill-178" fill="#B4B8B8"></path>
                    <path d="M123.429961,71.6714941 C123.429961,80.3890723 101.912871,87.4557715 75.3681445,87.4557715 C48.8254688,87.4557715 27.3075,80.3890723 27.3075,71.6714941 C27.3075,62.953623 48.8254688,55.1023535 75.3681445,55.1023535 C101.912871,55.1023535 123.429961,62.953623 123.429961,71.6714941" id="Fill-180" fill="#1E2D36"></path>
                    <path d="M75.3682324,87.4557422 C84.9184277,87.4557422 93.8094434,86.5375781 101.2904,84.9596484 C99.0008496,80.5674609 88.1677441,76.9408008 75.1400098,76.9408008 C62.1987012,76.9408008 51.4197949,80.52 49.0335645,84.8732227 C56.5988965,86.5044727 65.6431348,87.4557422 75.3682324,87.4557422" id="Fill-182" fill="#406073"></path>
                    <path d="M71.0383594,53.3526562 C69.5448047,53.4001172 68.0635547,53.4718945 66.5975391,53.5679883 C60.5682422,56.626875 54.5389453,59.6854687 48.5096484,62.7446484 C40.9824023,66.5634961 33.4554492,70.3823437 25.9279102,74.2011914 C26.1268359,74.7613477 26.3928516,75.3062695 26.7192188,75.8371289 C34.2889453,71.9968945 41.8583789,68.1563672 49.4281055,64.3161328 C56.6313281,60.6616406 63.8348438,57.0071484 71.0383594,53.3526562" id="Fill-184" fill="#B4B8B8"></path>
                    <path d="M90.540498,54.1494434 C89.4409863,54.0202441 88.328584,53.9051074 87.2053418,53.8043262 C78.7048535,58.1168262 70.2040723,62.4293262 61.703291,66.7418262 C52.140498,71.5936816 42.5774121,76.4452441 33.0143262,81.2973926 C33.6477246,81.649834 34.3136426,81.9911426 35.012373,82.3207324 C44.2156934,77.6519824 53.4187207,72.9829395 62.622041,68.3138965 C71.9281934,63.5924121 81.2343457,58.8709277 90.540498,54.1494434" id="Fill-186" fill="#B4B8B8"></path>
                    <path d="M105.809502,57.0945703 C104.947295,56.8508203 104.06751,56.6176172 103.169854,56.3961328 C93.7456348,61.1773828 84.321709,65.9586328 74.8971973,70.7395898 C64.9799121,75.7716211 55.061748,80.8033594 45.143877,85.8350977 C46.0353809,86.0633203 46.9462207,86.2804102 47.8752246,86.4863672 C57.1889941,81.7613672 66.5024707,77.0363672 75.8159473,72.3110742 C85.8137988,67.2391992 95.8119434,62.1667383 105.809502,57.0945703" id="Fill-188" fill="#B4B8B8"></path>
                    <path d="M117.578027,61.8152637 C116.962793,61.4581348 116.313574,61.108623 115.628027,60.7673145 C106.449316,65.4237598 97.2703125,70.080791 88.0916016,74.7372363 C79.0224609,79.3386035 69.9536133,83.9396777 60.8847656,88.540752 C62.0135742,88.6561816 63.1511719,88.7587207 64.2949219,88.8474902 C72.5332031,84.667998 80.7714844,80.4885059 89.0097656,76.3093066 C98.5324219,71.477666 108.055371,66.6463184 117.578027,61.8152637" id="Fill-190" fill="#B4B8B8"></path>
                    <path d="M101.285361,78.7350586 C94.426084,82.2149414 87.5670996,85.6951172 80.7078223,89.175293 C82.2054785,89.1193359 83.701084,89.0405273 85.1890723,88.9382813 C90.8606543,86.0613281 96.5322363,83.184082 102.203818,80.306543 C109.702061,76.5023437 117.200889,72.6981445 124.699131,68.8933594 C124.481748,68.3504883 124.198154,67.8140625 123.854502,67.2849609 C116.331357,71.1014648 108.808506,74.9185547 101.285361,78.7350586" id="Fill-192" fill="#B4B8B8"></path>
                    <path d="M118.095322,85.4003906 C118.095322,86.7380859 119.184287,87.890625 120.521982,87.890625 L120.65001,87.890625 C121.37335,86.4257812 121.976572,84.9609375 122.478428,82.9101562 L120.521982,82.9101562 C119.184287,82.9101562 118.095322,84.0626953 118.095322,85.4003906" id="Fill-194" fill="#1F2F38"></path>
                    <path d="M118.702119,89.3554688 C117.364131,89.3554688 116.275752,90.3023438 116.275752,91.640918 C116.275752,92.6255859 116.867549,93.5422852 117.713057,93.9222656 C118.620088,92.362793 119.418721,90.8203125 120.114521,89.3554688 L118.702119,89.3554688 Z" id="Fill-196" fill="#1F2F38"></path>
                    <path d="M127.441699,85.7983594 C127.441699,86.4683789 126.898535,87.0118359 126.228809,87.0118359 L120.158496,87.0118359 C119.488477,87.0118359 118.945605,86.4683789 118.945605,85.7983594 L118.945605,85.5883008 C118.945605,84.9182813 119.488477,84.3751172 120.158496,84.3751172 L126.228809,84.3751172 C126.898535,84.3751172 127.441699,84.9182813 127.441699,85.5883008 L127.441699,85.7983594 Z" id="Fill-198" fill="#B4B8B8"></path>
                    <path d="M128.027637,91.9512891 C128.027637,92.6210156 127.484473,93.1641797 126.814746,93.1641797 L118.693652,93.1641797 C118.023633,93.1641797 117.480762,92.6210156 117.480762,91.9512891 L117.480762,91.7400586 C117.480762,91.070332 118.023633,90.5274609 118.693652,90.5274609 L126.814746,90.5274609 C127.484473,90.5274609 128.027637,91.070332 128.027637,91.7400586 L128.027637,91.9512891 Z" id="Fill-200" fill="#B4B8B8"></path>
                    <path d="M131.806201,81.7935059 C132.139014,81.7935059 132.533057,80.7016113 132.533057,79.3671387 C132.533057,78.032666 130.819482,76.9407715 128.650635,76.9407715 C126.48208,76.9407715 124.738037,78.032666 124.738037,79.3671387 C124.738037,80.7016113 125.023682,81.7935059 125.357666,81.7935059 C125.690771,81.7935059 125.977002,84.5233887 125.977002,87.8597168 L125.977002,88.4661621 C125.977002,91.8027832 125.706299,94.532666 125.372607,94.532666 C125.038916,94.532666 124.767334,95.6245605 124.767334,96.9590332 C124.767334,98.2932129 126.541553,99.3851074 128.7104,99.3851074 C130.879541,99.3851074 132.653467,98.2932129 132.653467,96.9590332 C132.653467,95.6245605 132.1396,94.532666 131.805322,94.532666 C131.472217,94.532666 130.957471,91.8027832 130.957471,88.4661621 L130.957471,87.8597168 C130.957471,84.5233887 131.472217,81.7935059 131.806201,81.7935059" id="Fill-202" fill="#334D5C"></path>
                    <path d="M127.194785,96.958916 C127.194785,95.6244434 127.277402,94.5328418 127.611094,94.5328418 C127.944785,94.5328418 128.027695,91.802666 128.027695,88.4663379 L128.027695,87.8595996 C128.027695,84.5235645 127.944785,81.7933887 127.611094,81.7933887 C127.277402,81.7933887 127.09957,80.7017871 127.09957,79.3670215 C127.09957,78.292998 128.297227,77.3774707 129.876328,77.0598926 C129.494297,76.9831348 129.110508,76.9409473 128.687461,76.9409473 C126.518613,76.9409473 124.756113,78.0325488 124.756113,79.3670215 C124.756113,80.7017871 125.032969,81.7933887 125.36666,81.7933887 C125.700059,81.7933887 125.976914,84.5235645 125.976914,87.8595996 L125.976914,88.4663379 C125.976914,91.802666 125.706211,94.5328418 125.37252,94.5328418 C125.039121,94.5328418 124.767246,95.6244434 124.767246,96.958916 C124.767246,98.2933887 126.541758,99.3849902 128.710313,99.3849902 C129.133066,99.3849902 129.540879,99.3428027 129.923496,99.265459 C128.344687,98.9487598 127.194785,98.0326465 127.194785,96.958916" id="Fill-204" fill="#2C424F"></path>
                    <path d="M33.7758105,88.0371094 C33.7758105,89.3748047 32.6874316,90.5273438 31.3497363,90.5273438 L31.221123,90.5273438 C30.4980762,88.7695312 29.8951465,87.0117188 29.392998,85.546875 L31.3497363,85.546875 C32.6874316,85.546875 33.7758105,86.6994141 33.7758105,88.0371094" id="Fill-206" fill="#1F2F38"></path>
                    <path d="M33.1692773,91.40625 C34.5072656,91.40625 35.5959375,92.540918 35.5959375,93.8791992 C35.5959375,94.8647461 35.0032617,95.6865234 34.1586328,96.0667969 C33.2513086,94.5067383 32.4526758,92.8710938 31.756875,91.40625 L33.1692773,91.40625 Z" id="Fill-208" fill="#1F2F38"></path>
                    <path d="M32.5198242,88.2244922 C32.5198242,87.5547656 31.9766602,87.0116016 31.3069336,87.0116016 L25.2366211,87.0116016 C24.5668945,87.0116016 24.0237305,87.5547656 24.0237305,88.2244922 L24.0237305,88.4357227 C24.0237305,89.1054492 24.5668945,89.6483203 25.2366211,89.6483203 L31.3069336,89.6483203 C31.9766602,89.6483203 32.5198242,89.1054492 32.5198242,88.4357227 L32.5198242,88.2244922 Z" id="Fill-210" fill="#B4B8B8"></path>
                    <path d="M34.5706055,93.9571289 C34.5706055,93.2871094 34.1545898,92.8710938 33.4851563,92.8710938 L25.3631836,92.8710938 C24.69375,92.8710938 24.0237305,93.2871094 24.0237305,93.9571289 L24.0237305,94.1671875 C24.0237305,94.837207 24.69375,95.5078125 25.3631836,95.5078125 L33.4851563,95.5078125 C34.1545898,95.5078125 34.5706055,94.837207 34.5706055,94.1671875 L34.5706055,93.9571289 Z" id="Fill-212" fill="#B4B8B8"></path>
                    <path d="M19.7161816,84.2202246 C19.3824902,84.2202246 19.1633496,83.1283301 19.1633496,81.7935645 C19.1633496,80.4587988 20.9642285,79.3671973 23.1327832,79.3671973 C25.3013379,79.3671973 27.0896191,80.4587988 27.0896191,81.7935645 C27.0896191,83.1283301 26.622041,84.2202246 26.2892285,84.2202246 C25.9555371,84.2202246 25.4885449,86.9495215 25.4885449,90.2861426 L25.4885449,90.8928809 C25.4885449,94.228916 25.9622754,96.9587988 26.2956738,96.9587988 C26.6293652,96.9587988 27.0026074,98.0506934 27.0026074,99.385166 C27.0026074,100.719932 25.2790723,101.812119 23.1099316,101.812119 C20.941377,101.812119 19.1920605,100.719932 19.1920605,99.385166 C19.1920605,98.0506934 19.3701855,96.9587988 19.703584,96.9587988 C20.0369824,96.9587988 20.2151074,94.228916 20.2151074,90.8928809 L20.2151074,90.2861426 C20.2151074,86.9495215 20.049873,84.2202246 19.7161816,84.2202246" id="Fill-214" fill="#334D5C"></path>
                    <path d="M24.6766113,99.3850781 C24.6766113,98.0506055 24.2444824,96.9590039 23.911084,96.9590039 C23.5773926,96.9590039 23.1446777,94.2288281 23.1446777,90.8930859 L23.1446777,90.2860547 C23.1446777,86.9497266 23.5773926,84.2201367 23.911084,84.2201367 C24.2444824,84.2201367 24.5972168,83.1285352 24.5972168,81.7934766 C24.5972168,80.7197461 23.4865723,79.8036328 21.9071777,79.4866406 C22.2900879,79.4095898 22.7175293,79.3671094 23.1402832,79.3671094 C25.3094238,79.3671094 27.0936035,80.4587109 27.0936035,81.7934766 C27.0936035,83.1285352 26.6239746,84.2201367 26.2908691,84.2201367 C25.9571777,84.2201367 25.4884277,86.9497266 25.4884277,90.2860547 L25.4884277,90.8930859 C25.4884277,94.2288281 25.9624512,96.9590039 26.2955566,96.9590039 C26.629248,96.9590039 27.0024902,98.0506055 27.0024902,99.3850781 C27.0024902,100.720137 25.279248,101.812031 23.1098145,101.812031 C22.6870605,101.812031 22.3044434,101.768965 21.9218262,101.692207 C23.5012207,101.375508 24.6766113,100.459395 24.6766113,99.3850781" id="Fill-216" fill="#2C424F"></path>
                    <path d="M52.4331152,63.2675098 C53.5900488,63.3143848 54.5052832,63.772002 54.6968848,64.3427051 C54.7077246,64.3740527 54.7127051,64.4056934 54.7197363,64.437627 C54.732334,64.5050098 54.7431738,64.5726855 54.7346777,64.6418262 C54.7247168,64.7264941 54.6968848,64.8076465 54.6579199,64.8861621 C54.6546973,64.8911426 54.6538184,64.896123 54.6508887,64.9008105 C54.6125098,64.9725879 54.5600684,65.0402637 54.5005957,65.1050098 C54.4897559,65.1173145 54.4797949,65.1299121 54.4683691,65.1419238 C54.4121191,65.1987598 54.3450293,65.2514941 54.2738379,65.3021777 C54.244834,65.3232715 54.2152441,65.3440723 54.1841895,65.3639941 C54.1194434,65.4041309 53.9228613,65.4419238 53.8496191,65.477959 C53.813291,65.4955371 53.9064551,65.5137012 53.6134863,65.5306934 L53.6134863,65.5312793 C53.3205176,65.7348926 52.6610449,65.8494434 52.0033301,65.8236621 C50.6524512,65.7720996 49.6821387,65.1542285 49.7644629,64.4484668 C49.8464941,63.7421191 51.0787207,63.2130176 52.4331152,63.2675098 L52.4331152,63.2675098 Z M84.4364355,67.5474902 L81.7349707,67.4795215 C80.4860449,66.9237598 78.8861426,66.5680957 77.0963965,66.5015918 C76.8546973,66.4928027 76.6168066,66.5039355 76.379209,66.5039355 L76.3783301,66.5039355 C76.3783301,66.5039355 76.3677832,66.5124316 76.3490332,66.5130176 C76.2992285,66.5130176 76.2488379,66.5203418 76.1987402,66.5209277 C75.1340918,66.5308887 69.4950293,66.1298145 63.3875098,63.142998 C63.1121191,62.9906543 62.823252,62.9883105 62.5244238,62.402373 L62.522666,62.402373 C62.2915137,62.402373 62.062998,62.4800098 61.8365332,62.4000293 C59.5619238,61.4496387 56.7309668,60.9791309 53.6079199,60.846123 C46.9812598,60.5631152 41.1324316,62.6804004 38.9272559,65.7650684 L37.9985449,65.7542285 L38.0190527,68.0774707 C38.0187598,68.0830371 37.754209,68.0962207 37.7530371,68.1017871 C37.7213965,68.4073535 37.5002051,68.7149707 37.5002051,69.012627 L37.5002051,68.5547168 L37.9962012,68.5547168 C38.4426855,72.3633105 44.0199316,75.6179004 50.8493262,76.0544238 C50.8493262,76.0544238 72.0075293,76.7783496 80.1415137,74.0215137 L80.1426855,74.083916 C82.4943457,73.4420215 84.1903418,72.180791 84.4106543,70.7341113 C84.4296973,70.6084277 84.4358496,70.3125293 84.432041,70.3125293 L84.4343848,70.3125293 L84.4364355,67.5474902 Z" id="Fill-218" fill="#874A25"></path>
                    <path d="M60.9595312,60.4007813 L61.0014258,60.4180664 L61.0441992,60.4333008 C61.1906836,60.4857422 61.3412695,60.5522461 61.4915625,60.6313477 L61.6119727,60.7025391 L61.6822852,60.7245117 C61.9248633,60.8414063 62.1536719,60.9588867 62.3637305,61.0751953 L62.424375,61.10625 C68.1108984,63.8876953 73.5082617,64.3133789 75.5552344,64.369043 L75.5666602,64.3792969 L75.9724219,64.3757812 C76.0726172,64.3763672 76.1561133,64.3757812 76.2237891,64.3751953 L76.4013281,64.3731445 C76.580625,64.3710938 76.7909766,64.3708008 76.993418,64.377832 C80.5925391,64.509668 83.2942969,66.1016602 83.0191992,67.9280273 C82.8451758,69.0805664 81.530918,70.0977539 79.505332,70.6494141 L79.3989844,70.6801758 C71.9165625,73.2120117 52.0685156,72.7283203 50.9933203,72.7001953 C44.2289648,72.2493164 39.0355078,68.9402344 39.4146094,65.3173828 C39.8238867,61.4446289 46.1537695,58.5506836 53.5201758,58.8612305 C56.2509375,58.9751953 58.8237891,59.5086914 60.9595312,60.4007813 M38.0162695,65.2661133 C37.59,69.3949219 43.4906836,72.9594727 50.865293,73.4308594 C50.865293,73.4308594 72.015,74.0332031 80.1495703,71.2757812 L80.1463477,71.278418 C82.4985937,70.6365234 84.1922461,69.4209961 84.4125586,67.9743164 C84.7506445,65.7547852 81.4758398,63.8264648 77.09625,63.6641602 C76.8548437,63.6547852 76.6166602,63.6541992 76.3793555,63.655957 L76.3784766,63.6556641 C76.3784766,63.6556641 76.3679297,63.655957 76.3488867,63.656543 C76.299082,63.6571289 76.2489844,63.6583008 76.1988867,63.6591797 C75.1342383,63.6694336 69.4951758,63.5695312 63.3873633,60.5830078 C63.1122656,60.4306641 62.8231055,60.2841797 62.5245703,60.1435547 C62.5239844,60.1429688 62.5233984,60.1429688 62.5228125,60.1429688 C62.2916602,60.0196289 62.0631445,59.9188477 61.8363867,59.8382812 C59.5620703,58.8873047 56.7308203,58.2641602 53.6077734,58.1320312 C45.445957,57.7822266 38.4633398,60.9735352 38.0162695,65.2661133" id="Fill-220" fill="#9E572B"></path>
                    <path d="M56.0082422,61.8255762 C55.8772852,62.8943262 54.1059961,63.6982324 52.0516992,63.6211816 C49.9965234,63.542959 48.4300195,62.6075098 48.5536523,61.5317285 C48.6772852,60.4559473 50.4497461,59.6535059 52.5119531,59.7381738 C54.5738672,59.8228418 56.1391992,60.7571191 56.0082422,61.8255762 M39.4144922,65.3174707 C39.0353906,68.9403223 44.2288477,72.2494043 50.9934961,72.7002832 C52.0686914,72.7284082 71.9167383,73.2118066 79.3988672,70.6802637 L79.5052148,70.649502 C81.5308008,70.0975488 82.8450586,69.0806543 83.019082,67.9281152 C83.2944727,66.101748 80.5924219,64.5097559 76.9933008,64.3779199 C76.7911523,64.3708887 76.5808008,64.3708887 76.4012109,64.3729395 L76.2236719,64.3752832 C76.1559961,64.3758691 76.0725,64.3764551 75.9725977,64.3758691 L75.5668359,64.3793848 L75.5554102,64.3691309 C73.5081445,64.3134668 68.1110742,63.8877832 62.4242578,61.1063379 L62.3636133,61.0749902 C62.1538477,60.9589746 61.9247461,60.8414941 61.682168,60.7245996 L61.6118555,60.702627 L61.4917383,60.6314355 C61.3411523,60.552334 61.1905664,60.4858301 61.044082,60.4333887 L61.0013086,60.4178613 L60.9594141,60.4008691 C58.8236719,59.5087793 56.2508203,58.9749902 53.5203516,58.8613184 C46.1536523,58.5507715 39.8237695,61.4447168 39.4144922,65.3174707" id="Fill-222" fill="#E27C3E"></path>
                    <path d="M49.2682617,59.0406445 L41.9326172,69.7908398 C42.2504883,70.0263867 42.5932617,70.2525586 42.9615234,70.4658398 L50.8833984,58.8868359 C50.3334961,58.9199414 49.7944336,58.9720898 49.2682617,59.0406445" id="Fill-224" fill="#BA6733"></path>
                    <path d="M55.3273242,60.577002 L54.6968555,61.476416 C54.729375,61.5736816 54.7475391,61.673291 54.7346484,61.7758301 C54.6909961,62.1367676 54.3590625,62.4499512 53.866582,62.6641113 L53.2405078,63.5649902 L47.3462695,72.1554199 C47.7669727,72.2556152 48.2005664,72.3443848 48.6441211,72.4211426 L55.1949023,62.911084 L56.0102344,61.7459473 L57.6704883,59.3875488 C57.2351367,59.2929199 56.7904102,59.2094238 56.3377734,59.1396973 L55.3273242,60.577002 Z" id="Fill-226" fill="#BA6733"></path>
                    <path d="M55.4057227,72.7549512 L63.2895117,61.5102246 C63.0015234,61.3804395 62.7138281,61.2486035 62.424375,61.1062207 L62.3637305,61.075166 C62.302207,61.0405957 62.2351172,61.0060254 62.1697852,60.971748 L53.9350195,72.747334 C54.3858984,72.7505566 54.877793,72.7534863 55.4057227,72.7549512" id="Fill-228" fill="#BA6733"></path>
                    <path d="M62.4627246,72.6576855 L68.9968066,63.4602246 C68.5845996,63.3612012 68.1653613,63.2522168 67.7349902,63.1306348 L60.9574512,72.6984082 C61.4516895,72.6872754 61.9535449,72.6735059 62.4627246,72.6576855" id="Fill-230" fill="#BA6733"></path>
                    <path d="M69.7294336,72.2680078 L75.4300195,64.3642969 C75.0471094,64.3516992 74.5660547,64.3273828 73.9956445,64.278457 L68.169375,72.3846094 C68.6929102,72.3485742 69.2132227,72.3107813 69.7294336,72.2680078" id="Fill-232" fill="#BA6733"></path>
                    <path d="M77.4979688,71.2005762 L81.5954297,65.6069238 C81.2752148,65.4047754 80.9116406,65.2202051 80.5044141,65.061123 L75.770918,71.5424707 C76.3776563,71.4375879 76.9550977,71.323623 77.4979688,71.2005762" id="Fill-234" fill="#BA6733"></path>
                    <path d="M54.7347949,61.7757715 C54.649834,62.4788965 53.4808887,63.0094629 52.1297168,62.9573145 C50.7788379,62.905166 49.7455371,62.2878809 49.8275684,61.5821191 C49.9095996,60.8760645 51.0788379,60.346084 52.4332324,60.4014551 C53.787627,60.4565332 54.8197559,61.0729395 54.7347949,61.7757715 M48.5534473,61.5317285 C48.4301074,62.6075098 49.9966113,63.542959 52.0517871,63.6211816 C54.106084,63.6982324 55.877373,62.8943262 56.0083301,61.8255762 C56.1392871,60.7571191 54.5736621,59.8228418 52.512041,59.7381738 C50.449834,59.6535059 48.6770801,60.4559473 48.5534473,61.5317285" id="Fill-236" fill="#ECF0F0"></path>
                    <path d="M96.7000195,67.9209668 C96.9185742,67.9165723 97.1383008,67.9315137 97.3556836,67.9487988 C97.5800977,67.966377 97.8039258,67.994502 98.0262891,68.0267285 C98.3216016,68.069502 99.4814648,68.3487012 98.3421094,68.0612988 C98.6684766,68.143623 98.9895703,68.2485059 99.3068555,68.3633496 C99.5016797,68.4339551 99.6921094,68.5156934 99.8813672,68.5988965 C100.094941,68.6932324 100.805684,69.0834668 99.8913281,68.5725293 C100.239082,68.7670605 100.566914,68.9982129 100.882148,69.2448926 C101.072871,69.3928418 101.690742,70.0077832 100.938984,69.2525098 C101.115645,69.4300488 101.275898,69.6242871 101.433516,69.8202832 C101.552754,69.9691113 101.660566,70.1279004 101.768086,70.2866895 C102.099141,70.7738965 101.380195,69.5422559 101.799434,70.3555371 C102.022969,70.7900098 102.195527,71.2523145 102.346992,71.7184277 C102.555586,72.3576855 102.14748,70.9482129 102.310957,71.5927441 C102.368379,71.8159863 102.413496,72.0427441 102.456855,72.2700879 C102.53918,72.6943066 102.591328,73.1249707 102.631758,73.5556348 C102.64582,73.703584 102.655195,73.8521191 102.66457,74.0003613 C102.715254,74.7945996 102.65666,73.3347363 102.666328,73.8459668 C102.671602,74.1409863 102.665449,74.4368848 102.652266,74.7324902 C102.642012,74.978877 102.626484,75.2264355 102.595137,75.4704785 C102.369551,77.237373 103.742109,78.8756543 105.387129,79.047041 C107.11916,79.2269238 108.568477,77.8807324 108.793477,76.1158887 C109.249629,72.541377 108.400898,68.5069043 106.250801,65.6753613 C104.864766,63.8487012 102.773848,62.5631543 100.641621,61.9649121 C99.5763867,61.6652051 98.4291211,61.3906934 97.314082,61.412959 C96.4489453,61.431416 95.7311719,61.5377637 95.0327344,62.1380566 C94.3969922,62.6862012 93.9888867,63.4854199 93.9077344,64.3446973 C93.7553906,65.9610059 94.9993359,67.9549512 96.7000195,67.9209668" id="Fill-238" fill="#BA6733"></path>
                    <path d="M99.2039648,67.8875098 C99.7149023,68.0489355 100.430332,67.1275488 100.80123,65.8302832 C101.172422,64.5321387 101.058457,63.3500098 100.547812,63.1891699 C100.037168,63.0277441 99.3217383,63.9491309 98.9505469,65.2463965 C98.5796484,66.544541 98.6930273,67.7266699 99.2039648,67.8875098" id="Fill-240" fill="#874A25"></path>
                    <path d="M103.342148,73.4613281 C103.42418,74.0147461 104.524277,74.2933594 105.799277,74.0844727 C107.07457,73.8755859 108.04166,73.2574219 107.959043,72.7037109 C107.876426,72.150293 106.776621,71.8716797 105.501621,72.0805664 C104.226328,72.2900391 103.259238,72.9079102 103.342148,73.4613281" id="Fill-242" fill="#874A25"></path>
                    <path d="M101.883311,69.1532227 C102.209385,69.5967773 103.301572,69.2847656 104.322861,68.456543 C105.344443,67.6283203 105.907529,66.5982422 105.581455,66.1543945 C105.255381,65.7114258 104.163486,66.0231445 103.141904,66.8510742 C102.121201,67.6792969 101.557529,68.709668 101.883311,69.1532227" id="Fill-244" fill="#874A25"></path>
                    <path d="M93.988916,65.3909766 C94.3442871,65.4838477 94.7034668,65.4275977 94.9759277,65.1982031 C95.498291,64.7569922 95.5012207,63.8499609 94.982373,63.1714453 C94.8414551,62.986875 94.6753418,62.8403906 94.4989746,62.7305273 C94.1708496,63.1998633 93.9631348,63.7585547 93.9077637,64.3447852 C93.8755371,64.684043 93.9068848,65.0405859 93.988916,65.3909766" id="Fill-246" fill="#874A25"></path>
                    <path d="M107.34873,78.5476758 C107.396777,78.3071484 107.369531,78.0938672 107.251465,77.9388867 C106.917187,77.5029492 105.994336,77.6992383 105.189844,78.3777539 C105.000879,78.5377148 104.836523,78.7096875 104.697656,78.8845898 C104.919434,78.9663281 105.150293,79.0219922 105.387305,79.0468945 C106.11416,79.1227734 106.790625,78.9282422 107.34873,78.5476758" id="Fill-248" fill="#874A25"></path>
                    <path d="M106.250947,65.6753613 C104.864912,63.8487012 102.773994,62.5631543 100.641768,61.9649121 C99.5765332,61.6652051 98.4292676,61.3906934 97.3139355,61.412959 C96.7130566,61.4252637 96.1839551,61.4812207 95.6832715,61.7141309 C95.5997754,61.9608105 95.5435254,62.218623 95.518916,62.482002 C95.3662793,64.0980176 96.6108105,66.0922559 98.3109082,66.0582715 C98.5300488,66.053584 98.7491895,66.0691113 98.9668652,66.0858105 C99.1906934,66.1039746 99.4145215,66.1323926 99.6371777,66.1640332 C99.7766309,66.184541 100.110908,66.2577832 100.301924,66.2985059 C100.50876,66.3609082 100.714424,66.4277051 100.917451,66.5009473 C101.112275,66.5715527 101.302705,66.653291 101.492256,66.7367871 C101.564326,66.7678418 101.693525,66.8340527 101.797236,66.887373 C102.037471,67.0394238 102.268623,67.206709 102.493623,67.3821973 C102.558955,67.4337598 102.674385,67.5389355 102.768135,67.6253613 C102.862764,67.7337598 102.954756,67.8456738 103.044697,67.9578809 C103.157783,68.0990918 103.260322,68.2493848 103.362275,68.3999707 C103.376631,68.4278027 103.391865,68.4579785 103.410322,68.4931348 C103.623018,68.9070996 103.789717,69.3465527 103.936201,69.7906934 C103.986592,69.9945996 104.028193,70.2005566 104.067744,70.4076855 C104.149775,70.8321973 104.202803,71.2622754 104.242939,71.6929395 C104.256416,71.8408887 104.266377,71.9897168 104.276045,72.138252 C104.276045,72.147041 104.276924,72.1537793 104.277217,72.1622754 C104.277803,72.3978223 104.273408,72.634248 104.263154,72.8706738 C104.253193,73.1167676 104.23708,73.3640332 104.206611,73.6083691 C103.980439,75.3746777 105.352998,77.0135449 106.998604,77.1846387 C107.578096,77.2446973 108.125361,77.1336621 108.607002,76.8931348 C108.695186,76.6464551 108.759346,76.3860059 108.793623,76.1158887 C109.249482,72.541377 108.401045,68.5069043 106.250947,65.6753613" id="Fill-250" fill="#5D5D5D"></path>
                </g>
            </g>
        </g>
    </g>
</svg>